<mxfile host="Electron" agent="Mozilla/5.0 (Windows NT 10.0; Win64; x64) AppleWebKit/537.36 (KHTML, like Gecko) draw.io/27.0.2 Chrome/134.0.6998.205 Electron/35.3.0 Safari/537.36" version="27.0.2">
  <diagram name="Page-1" id="JbO-Bdk5MSFKmGp9ihvg">
    <mxGraphModel dx="432" dy="289" grid="1" gridSize="10" guides="1" tooltips="1" connect="1" arrows="1" fold="1" page="1" pageScale="1" pageWidth="850" pageHeight="1100" math="0" shadow="0">
      <root>
        <mxCell id="0" />
        <mxCell id="1" parent="0" />
        <mxCell id="esOTtCoE47d4U4hxgMsz-1" value="" style="rounded=0;whiteSpace=wrap;html=1;" vertex="1" parent="1">
          <mxGeometry x="220" y="310" width="130" height="270" as="geometry" />
        </mxCell>
        <mxCell id="esOTtCoE47d4U4hxgMsz-2" value="" style="rounded=0;whiteSpace=wrap;html=1;" vertex="1" parent="1">
          <mxGeometry x="360" y="370" width="260" height="210" as="geometry" />
        </mxCell>
        <mxCell id="esOTtCoE47d4U4hxgMsz-3" value="3D print price calculator" style="rounded=0;whiteSpace=wrap;html=1;" vertex="1" parent="1">
          <mxGeometry x="360" y="310" width="260" height="50" as="geometry" />
        </mxCell>
        <mxCell id="esOTtCoE47d4U4hxgMsz-4" value="Help" style="rounded=0;whiteSpace=wrap;html=1;" vertex="1" parent="1">
          <mxGeometry x="245" y="510" width="80" height="30" as="geometry" />
        </mxCell>
        <mxCell id="esOTtCoE47d4U4hxgMsz-5" value="Settings" style="rounded=0;whiteSpace=wrap;html=1;" vertex="1" parent="1">
          <mxGeometry x="245" y="470" width="80" height="30" as="geometry" />
        </mxCell>
        <mxCell id="esOTtCoE47d4U4hxgMsz-6" value="History" style="rounded=0;whiteSpace=wrap;html=1;" vertex="1" parent="1">
          <mxGeometry x="245" y="430" width="80" height="30" as="geometry" />
        </mxCell>
        <mxCell id="esOTtCoE47d4U4hxgMsz-7" value="Calculator" style="rounded=0;whiteSpace=wrap;html=1;" vertex="1" parent="1">
          <mxGeometry x="245" y="390" width="80" height="30" as="geometry" />
        </mxCell>
        <mxCell id="esOTtCoE47d4U4hxgMsz-10" value="file..." style="rounded=0;whiteSpace=wrap;html=1;align=left;" vertex="1" parent="1">
          <mxGeometry x="380" y="390" width="150" height="20" as="geometry" />
        </mxCell>
        <mxCell id="esOTtCoE47d4U4hxgMsz-13" value="browse.." style="rounded=0;whiteSpace=wrap;html=1;align=left;" vertex="1" parent="1">
          <mxGeometry x="540" y="390" width="50" height="20" as="geometry" />
        </mxCell>
      </root>
    </mxGraphModel>
  </diagram>
</mxfile>
